<mxfile host="65bd71144e">
    <diagram id="pPyVunfj3Msd3YoQSqLr" name="Design overview">
        <mxGraphModel dx="993" dy="392" grid="1" gridSize="10" guides="1" tooltips="1" connect="1" arrows="1" fold="1" page="1" pageScale="1" pageWidth="827" pageHeight="1169" math="0" shadow="0">
            <root>
                <mxCell id="0"/>
                <mxCell id="1" parent="0"/>
                <mxCell id="25" style="edgeStyle=none;html=1;" parent="1" source="20" target="24" edge="1">
                    <mxGeometry relative="1" as="geometry"/>
                </mxCell>
                <mxCell id="20" value="" style="rounded=0;whiteSpace=wrap;html=1;dashed=1;" parent="1" vertex="1">
                    <mxGeometry x="200" y="40" width="220" height="230" as="geometry"/>
                </mxCell>
                <mxCell id="13" value="" style="rounded=1;whiteSpace=wrap;html=1;dashed=1;" parent="1" vertex="1">
                    <mxGeometry x="230" y="170" width="120" height="60" as="geometry"/>
                </mxCell>
                <mxCell id="12" value="" style="rounded=1;whiteSpace=wrap;html=1;dashed=1;" parent="1" vertex="1">
                    <mxGeometry x="250" y="140" width="120" height="60" as="geometry"/>
                </mxCell>
                <mxCell id="9" style="edgeStyle=none;html=1;" parent="1" source="7" target="4" edge="1">
                    <mxGeometry relative="1" as="geometry"/>
                </mxCell>
                <mxCell id="7" value="" style="rounded=0;whiteSpace=wrap;html=1;dashed=1;" parent="1" vertex="1">
                    <mxGeometry x="680" y="42" width="220" height="230" as="geometry"/>
                </mxCell>
                <mxCell id="10" style="edgeStyle=none;html=1;entryX=0;entryY=0.5;entryDx=0;entryDy=0;" parent="1" source="2" target="3" edge="1">
                    <mxGeometry relative="1" as="geometry"/>
                </mxCell>
                <mxCell id="2" value="Palprimes" style="rounded=1;whiteSpace=wrap;html=1;" parent="1" vertex="1">
                    <mxGeometry x="270" y="110" width="120" height="60" as="geometry"/>
                </mxCell>
                <mxCell id="8" style="edgeStyle=none;html=1;" parent="1" source="3" target="7" edge="1">
                    <mxGeometry relative="1" as="geometry"/>
                </mxCell>
                <mxCell id="3" value="receivenr." style="shape=process;whiteSpace=wrap;html=1;backgroundOutline=1;" parent="1" vertex="1">
                    <mxGeometry x="480" y="90" width="120" height="30" as="geometry"/>
                </mxCell>
                <mxCell id="11" style="edgeStyle=none;html=1;" parent="1" source="4" target="2" edge="1">
                    <mxGeometry relative="1" as="geometry"/>
                </mxCell>
                <mxCell id="4" value="result" style="shape=process;whiteSpace=wrap;html=1;backgroundOutline=1;" parent="1" vertex="1">
                    <mxGeometry x="480" y="170" width="120" height="30" as="geometry"/>
                </mxCell>
                <mxCell id="5" value="Pal" style="rounded=1;whiteSpace=wrap;html=1;" parent="1" vertex="1">
                    <mxGeometry x="730" y="82" width="120" height="60" as="geometry"/>
                </mxCell>
                <mxCell id="6" value="Prime" style="rounded=1;whiteSpace=wrap;html=1;" parent="1" vertex="1">
                    <mxGeometry x="730" y="177" width="120" height="60" as="geometry"/>
                </mxCell>
                <mxCell id="14" value="result" style="shape=process;whiteSpace=wrap;html=1;backgroundOutline=1;" parent="1" vertex="1">
                    <mxGeometry x="490" y="180" width="120" height="30" as="geometry"/>
                </mxCell>
                <mxCell id="15" value="result" style="shape=process;whiteSpace=wrap;html=1;backgroundOutline=1;" parent="1" vertex="1">
                    <mxGeometry x="500" y="190" width="120" height="30" as="geometry"/>
                </mxCell>
                <mxCell id="16" value="Prime" style="rounded=1;whiteSpace=wrap;html=1;" parent="1" vertex="1">
                    <mxGeometry x="740" y="187" width="120" height="60" as="geometry"/>
                </mxCell>
                <mxCell id="17" value="Pal" style="rounded=1;whiteSpace=wrap;html=1;" parent="1" vertex="1">
                    <mxGeometry x="740" y="92" width="120" height="60" as="geometry"/>
                </mxCell>
                <mxCell id="21" style="edgeStyle=none;html=1;" parent="1" source="18" target="20" edge="1">
                    <mxGeometry relative="1" as="geometry"/>
                </mxCell>
                <mxCell id="18" value="App" style="rounded=1;whiteSpace=wrap;html=1;" parent="1" vertex="1">
                    <mxGeometry x="20" y="122" width="110" height="60" as="geometry"/>
                </mxCell>
                <mxCell id="22" value="1Pal" style="text;html=1;strokeColor=none;fillColor=none;align=center;verticalAlign=middle;whiteSpace=wrap;rounded=0;dashed=1;" parent="1" vertex="1">
                    <mxGeometry x="344" y="64" width="60" height="30" as="geometry"/>
                </mxCell>
                <mxCell id="23" value="1Prime" style="text;html=1;strokeColor=none;fillColor=none;align=center;verticalAlign=middle;whiteSpace=wrap;rounded=0;dashed=1;" parent="1" vertex="1">
                    <mxGeometry x="350" y="80" width="60" height="30" as="geometry"/>
                </mxCell>
                <mxCell id="24" value="Redis Cache" style="shape=cylinder3;whiteSpace=wrap;html=1;boundedLbl=1;backgroundOutline=1;size=15;" parent="1" vertex="1">
                    <mxGeometry x="280" y="320" width="60" height="60" as="geometry"/>
                </mxCell>
                <mxCell id="54" value="receivenr." style="shape=process;whiteSpace=wrap;html=1;backgroundOutline=1;" parent="1" vertex="1">
                    <mxGeometry x="490" y="100" width="120" height="30" as="geometry"/>
                </mxCell>
                <mxCell id="55" value="receivenr." style="shape=process;whiteSpace=wrap;html=1;backgroundOutline=1;" parent="1" vertex="1">
                    <mxGeometry x="500" y="110" width="120" height="30" as="geometry"/>
                </mxCell>
                <mxCell id="56" value="Pal" style="rounded=1;whiteSpace=wrap;html=1;" parent="1" vertex="1">
                    <mxGeometry x="750" y="102" width="120" height="60" as="geometry"/>
                </mxCell>
                <mxCell id="57" value="Prime" style="rounded=1;whiteSpace=wrap;html=1;" parent="1" vertex="1">
                    <mxGeometry x="750" y="197" width="120" height="60" as="geometry"/>
                </mxCell>
            </root>
        </mxGraphModel>
    </diagram>
    <diagram id="8d4cB6fVcWNJ7wQTafd8" name="Topic partitioning">
        <mxGraphModel dx="993" dy="392" grid="1" gridSize="10" guides="1" tooltips="1" connect="1" arrows="1" fold="1" page="1" pageScale="1" pageWidth="827" pageHeight="1169" math="0" shadow="0">
            <root>
                <mxCell id="-WHkqUV7yYceHGaGHCmx-0"/>
                <mxCell id="-WHkqUV7yYceHGaGHCmx-1" parent="-WHkqUV7yYceHGaGHCmx-0"/>
                <mxCell id="-WHkqUV7yYceHGaGHCmx-2" value="Receivenumber" style="rounded=0;whiteSpace=wrap;html=1;dashed=1;verticalAlign=top;" vertex="1" parent="-WHkqUV7yYceHGaGHCmx-1">
                    <mxGeometry x="220" y="92" width="200" height="300" as="geometry"/>
                </mxCell>
                <mxCell id="-WHkqUV7yYceHGaGHCmx-3" value="1" style="rounded=0;whiteSpace=wrap;html=1;" vertex="1" parent="-WHkqUV7yYceHGaGHCmx-1">
                    <mxGeometry x="270" y="142" width="20" height="60" as="geometry"/>
                </mxCell>
                <mxCell id="-WHkqUV7yYceHGaGHCmx-4" value="1" style="rounded=0;whiteSpace=wrap;html=1;" vertex="1" parent="-WHkqUV7yYceHGaGHCmx-1">
                    <mxGeometry x="300" y="142" width="20" height="60" as="geometry"/>
                </mxCell>
                <mxCell id="-WHkqUV7yYceHGaGHCmx-5" value="" style="rounded=0;whiteSpace=wrap;html=1;" vertex="1" parent="-WHkqUV7yYceHGaGHCmx-1">
                    <mxGeometry x="330" y="142" width="20" height="60" as="geometry"/>
                </mxCell>
                <mxCell id="-WHkqUV7yYceHGaGHCmx-6" style="edgeStyle=none;html=1;entryX=0;entryY=0.5;entryDx=0;entryDy=0;" edge="1" parent="-WHkqUV7yYceHGaGHCmx-1" source="-WHkqUV7yYceHGaGHCmx-7" target="-WHkqUV7yYceHGaGHCmx-24">
                    <mxGeometry relative="1" as="geometry"/>
                </mxCell>
                <mxCell id="-WHkqUV7yYceHGaGHCmx-7" value="" style="rounded=0;whiteSpace=wrap;html=1;" vertex="1" parent="-WHkqUV7yYceHGaGHCmx-1">
                    <mxGeometry x="360" y="142" width="20" height="60" as="geometry"/>
                </mxCell>
                <mxCell id="-WHkqUV7yYceHGaGHCmx-8" value="3" style="rounded=0;whiteSpace=wrap;html=1;" vertex="1" parent="-WHkqUV7yYceHGaGHCmx-1">
                    <mxGeometry x="270" y="222" width="20" height="60" as="geometry"/>
                </mxCell>
                <mxCell id="-WHkqUV7yYceHGaGHCmx-9" value="3" style="rounded=0;whiteSpace=wrap;html=1;" vertex="1" parent="-WHkqUV7yYceHGaGHCmx-1">
                    <mxGeometry x="300" y="222" width="20" height="60" as="geometry"/>
                </mxCell>
                <mxCell id="-WHkqUV7yYceHGaGHCmx-10" value="" style="rounded=0;whiteSpace=wrap;html=1;" vertex="1" parent="-WHkqUV7yYceHGaGHCmx-1">
                    <mxGeometry x="330" y="222" width="20" height="60" as="geometry"/>
                </mxCell>
                <mxCell id="-WHkqUV7yYceHGaGHCmx-11" style="edgeStyle=none;html=1;" edge="1" parent="-WHkqUV7yYceHGaGHCmx-1" source="-WHkqUV7yYceHGaGHCmx-12" target="-WHkqUV7yYceHGaGHCmx-25">
                    <mxGeometry relative="1" as="geometry"/>
                </mxCell>
                <mxCell id="-WHkqUV7yYceHGaGHCmx-12" value="" style="rounded=0;whiteSpace=wrap;html=1;" vertex="1" parent="-WHkqUV7yYceHGaGHCmx-1">
                    <mxGeometry x="360" y="222" width="20" height="60" as="geometry"/>
                </mxCell>
                <mxCell id="-WHkqUV7yYceHGaGHCmx-13" value="2" style="rounded=0;whiteSpace=wrap;html=1;" vertex="1" parent="-WHkqUV7yYceHGaGHCmx-1">
                    <mxGeometry x="270" y="302" width="20" height="60" as="geometry"/>
                </mxCell>
                <mxCell id="-WHkqUV7yYceHGaGHCmx-14" value="" style="rounded=0;whiteSpace=wrap;html=1;" vertex="1" parent="-WHkqUV7yYceHGaGHCmx-1">
                    <mxGeometry x="300" y="302" width="20" height="60" as="geometry"/>
                </mxCell>
                <mxCell id="-WHkqUV7yYceHGaGHCmx-15" value="" style="rounded=0;whiteSpace=wrap;html=1;" vertex="1" parent="-WHkqUV7yYceHGaGHCmx-1">
                    <mxGeometry x="330" y="302" width="20" height="60" as="geometry"/>
                </mxCell>
                <mxCell id="-WHkqUV7yYceHGaGHCmx-16" style="edgeStyle=none;html=1;entryX=0;entryY=0.5;entryDx=0;entryDy=0;" edge="1" parent="-WHkqUV7yYceHGaGHCmx-1" source="-WHkqUV7yYceHGaGHCmx-17" target="-WHkqUV7yYceHGaGHCmx-27">
                    <mxGeometry relative="1" as="geometry"/>
                </mxCell>
                <mxCell id="-WHkqUV7yYceHGaGHCmx-17" value="" style="rounded=0;whiteSpace=wrap;html=1;" vertex="1" parent="-WHkqUV7yYceHGaGHCmx-1">
                    <mxGeometry x="360" y="302" width="20" height="60" as="geometry"/>
                </mxCell>
                <mxCell id="-WHkqUV7yYceHGaGHCmx-18" value="1 - Pal" style="text;html=1;strokeColor=none;fillColor=none;align=center;verticalAlign=middle;whiteSpace=wrap;rounded=0;" vertex="1" parent="-WHkqUV7yYceHGaGHCmx-1">
                    <mxGeometry x="130" y="133" width="60" height="30" as="geometry"/>
                </mxCell>
                <mxCell id="-WHkqUV7yYceHGaGHCmx-19" value="1 - Prime" style="text;html=1;strokeColor=none;fillColor=none;align=center;verticalAlign=middle;whiteSpace=wrap;rounded=0;" vertex="1" parent="-WHkqUV7yYceHGaGHCmx-1">
                    <mxGeometry x="130" y="193" width="60" height="30" as="geometry"/>
                </mxCell>
                <mxCell id="-WHkqUV7yYceHGaGHCmx-20" value="2 - Prime" style="text;html=1;strokeColor=none;fillColor=none;align=center;verticalAlign=middle;whiteSpace=wrap;rounded=0;" vertex="1" parent="-WHkqUV7yYceHGaGHCmx-1">
                    <mxGeometry x="130" y="220" width="60" height="30" as="geometry"/>
                </mxCell>
                <mxCell id="-WHkqUV7yYceHGaGHCmx-21" value="3 - Prime" style="text;html=1;strokeColor=none;fillColor=none;align=center;verticalAlign=middle;whiteSpace=wrap;rounded=0;" vertex="1" parent="-WHkqUV7yYceHGaGHCmx-1">
                    <mxGeometry x="130" y="163" width="60" height="30" as="geometry"/>
                </mxCell>
                <mxCell id="-WHkqUV7yYceHGaGHCmx-22" value="2 - Pal" style="text;html=1;strokeColor=none;fillColor=none;align=center;verticalAlign=middle;whiteSpace=wrap;rounded=0;" vertex="1" parent="-WHkqUV7yYceHGaGHCmx-1">
                    <mxGeometry x="130" y="250" width="60" height="30" as="geometry"/>
                </mxCell>
                <mxCell id="-WHkqUV7yYceHGaGHCmx-23" value="3 - Pal" style="text;html=1;strokeColor=none;fillColor=none;align=center;verticalAlign=middle;whiteSpace=wrap;rounded=0;" vertex="1" parent="-WHkqUV7yYceHGaGHCmx-1">
                    <mxGeometry x="130" y="280" width="60" height="30" as="geometry"/>
                </mxCell>
                <mxCell id="-WHkqUV7yYceHGaGHCmx-24" value="Palprimes" style="rounded=1;whiteSpace=wrap;html=1;" vertex="1" parent="-WHkqUV7yYceHGaGHCmx-1">
                    <mxGeometry x="470" y="90" width="120" height="60" as="geometry"/>
                </mxCell>
                <mxCell id="-WHkqUV7yYceHGaGHCmx-25" value="Palprimes" style="rounded=1;whiteSpace=wrap;html=1;" vertex="1" parent="-WHkqUV7yYceHGaGHCmx-1">
                    <mxGeometry x="470" y="170" width="120" height="60" as="geometry"/>
                </mxCell>
                <mxCell id="-WHkqUV7yYceHGaGHCmx-26" value="Palprimes" style="rounded=1;whiteSpace=wrap;html=1;dashed=1;" vertex="1" parent="-WHkqUV7yYceHGaGHCmx-1">
                    <mxGeometry x="470" y="250" width="120" height="60" as="geometry"/>
                </mxCell>
                <mxCell id="-WHkqUV7yYceHGaGHCmx-27" value="Palprimes" style="rounded=1;whiteSpace=wrap;html=1;" vertex="1" parent="-WHkqUV7yYceHGaGHCmx-1">
                    <mxGeometry x="470" y="330" width="120" height="60" as="geometry"/>
                </mxCell>
            </root>
        </mxGraphModel>
    </diagram>
</mxfile>